<svg width="75" height="35" viewBox="0 0 75 35" fill="none" xmlns="http://www.w3.org/2000/svg">
<path fill-rule="evenodd" clip-rule="evenodd" d="M36.4844 0.261121C37.0095 -0.0870405 37.715 -0.0870404 38.2402 0.261121C44.7821 4.59815 47.7479 9.79748 47.9348 17.2571C48.0211 20.8192 47.6516 24.0807 46.5273 26.8981C45.3741 29.7173 43.3234 32.322 40.3043 34.5215C39.9233 34.7968 39.4235 34.8865 38.9594 34.7629C38.0347 34.5165 37.8773 33.4993 37.3623 32.8651C36.847 33.4996 36.6905 34.5164 35.7652 34.7629C35.3011 34.8865 34.8013 34.7968 34.4203 34.5215C31.4012 32.322 29.3505 29.7173 28.1973 26.8981C27.0729 24.0807 26.7035 20.8192 26.7898 17.2571C26.9767 9.79748 29.9424 4.59815 36.4844 0.261121ZM39.8664 31.3084C41.7557 29.6963 42.8941 27.937 43.6986 25.9143C44.7106 23.4407 45.0026 20.7087 44.9148 17.3223C44.7691 11.5056 43.3025 7.72022 38.8595 4.20561V14.486C40.5967 14.9009 41.3769 16.4824 41.3769 18.2243C41.3769 19.9662 40.5967 21.5477 38.8595 21.9626V30.3738C38.8595 30.3738 39.6668 31.0646 39.8664 31.3084ZM34.8317 31.3084C32.9423 29.6963 31.8305 27.937 31.026 25.9143C30.014 23.4407 29.722 20.7087 29.8098 17.3223C29.9553 11.5172 31.4142 7.71554 35.8386 4.20561V14.486C34.1014 14.9009 33.3212 16.4824 33.3212 18.2243C33.3212 19.9662 34.1014 21.5477 35.8386 21.9626V30.3738C35.8386 30.3738 35.0239 31.0736 34.8317 31.3084ZM37.3491 16.3551C36.2368 16.3551 35.3351 17.192 35.3351 18.2243C35.3351 19.2566 36.2368 20.0935 37.3491 20.0935C38.4612 20.0935 39.363 19.2566 39.363 18.2243C39.363 17.192 38.4612 16.3551 37.3491 16.3551Z" fill="#1188EE"/>
<path fill-rule="evenodd" clip-rule="evenodd" d="M10.3038 0.261121C10.829 -0.0870405 11.5345 -0.0870404 12.0597 0.261121C18.6016 4.59815 21.5674 9.79748 21.7542 17.2571C21.8405 20.8192 21.4711 24.0807 20.3467 26.8981C19.1936 29.7173 17.1428 32.322 14.1237 34.5215C13.7428 34.7968 13.2429 34.8865 12.7788 34.7629C11.8542 34.5165 11.6968 33.4993 11.1817 32.8651C10.6664 33.4996 10.51 34.5164 9.58461 34.7629C9.12053 34.8865 8.62073 34.7968 8.23981 34.5215C5.22061 32.322 3.16996 29.7173 2.01673 26.8981C0.892366 24.0807 0.522954 20.8192 0.60924 17.2571C0.796154 9.79748 3.76185 4.59815 10.3038 0.261121ZM13.6859 31.3084C15.5751 29.6963 16.7136 27.937 17.518 25.9143C18.5301 23.4407 18.822 20.7087 18.7342 17.3223C18.5885 11.5056 17.122 7.72022 12.679 4.20561V14.486C14.4161 14.9009 15.1963 16.4824 15.1963 18.2243C15.1963 19.9662 14.4161 21.5477 12.679 21.9626V30.3738C12.679 30.3738 13.4862 31.0646 13.6859 31.3084ZM8.65112 31.3084C6.7618 29.6963 5.64995 27.937 4.84546 25.9143C3.83344 23.4407 3.54144 20.7087 3.62926 17.3223C3.77471 11.5172 5.23362 7.71554 9.65807 4.20561V14.486C7.92086 14.9009 7.14071 16.4824 7.14071 18.2243C7.14071 19.9662 7.92086 21.5477 9.65807 21.9626V30.3738C9.65807 30.3738 8.84333 31.0736 8.65112 31.3084ZM11.1685 16.3551C10.0562 16.3551 9.1546 17.192 9.1546 18.2243C9.1546 19.2566 10.0562 20.0935 11.1685 20.0935C12.2807 20.0935 13.1824 19.2566 13.1824 18.2243C13.1824 17.192 12.2807 16.3551 11.1685 16.3551Z" fill="#1188EE"/>
<path fill-rule="evenodd" clip-rule="evenodd" d="M62.6649 0.261121C63.1901 -0.0870405 63.8955 -0.0870404 64.4208 0.261121C70.9627 4.59815 73.9284 9.79748 74.1153 17.2571C74.2016 20.8192 73.8322 24.0807 72.7078 26.8981C71.5547 29.7173 69.5039 32.322 66.4848 34.5215C66.1039 34.7968 65.604 34.8865 65.1399 34.7629C64.2152 34.5165 64.0579 33.4993 63.5428 32.8651C63.0275 33.4996 62.8711 34.5164 61.9457 34.7629C61.4816 34.8865 60.9818 34.7968 60.6009 34.5215C57.5817 32.322 55.531 29.7173 54.3778 26.8981C53.2535 24.0807 52.884 20.8192 52.9703 17.2571C53.1572 9.79748 56.1229 4.59815 62.6649 0.261121ZM66.047 31.3084C67.9362 29.6963 69.0747 27.937 69.8791 25.9143C70.8912 23.4407 71.1831 20.7087 71.0953 17.3223C70.9496 11.5056 69.4831 7.72022 65.04 4.20561V14.486C66.7772 14.9009 67.5574 16.4824 67.5574 18.2243C67.5574 19.9662 66.7772 21.5477 65.04 21.9626V30.3738C65.04 30.3738 65.8473 31.0646 66.047 31.3084ZM61.0122 31.3084C59.1229 29.6963 58.011 27.937 57.2065 25.9143C56.1945 23.4407 55.9025 20.7087 55.9903 17.3223C56.1358 11.5172 57.5947 7.71554 62.0192 4.20561V14.486C60.2819 14.9009 59.5018 16.4824 59.5018 18.2243C59.5018 19.9662 60.2819 21.5477 62.0192 21.9626V30.3738C62.0192 30.3738 61.2044 31.0736 61.0122 31.3084ZM63.5296 16.3551C62.4173 16.3551 61.5157 17.192 61.5157 18.2243C61.5157 19.2566 62.4173 20.0935 63.5296 20.0935C64.6418 20.0935 65.5435 19.2566 65.5435 18.2243C65.5435 17.192 64.6418 16.3551 63.5296 16.3551Z" fill="#1188EE"/>
</svg>
