<svg width="48" height="35" viewBox="0 0 48 35" fill="none" xmlns="http://www.w3.org/2000/svg">
<path fill-rule="evenodd" clip-rule="evenodd" d="M9.70661 0.261121C10.2318 -0.0870405 10.9372 -0.0870404 11.4625 0.261121C18.0044 4.59815 20.9701 9.79748 21.157 17.2571C21.2433 20.8192 20.8739 24.0807 19.7495 26.8981C18.5964 29.7173 16.5456 32.322 13.5265 34.5215C13.1456 34.7968 12.6457 34.8865 12.1816 34.7629C11.2569 34.5165 11.0996 33.4993 10.5845 32.8651C10.0692 33.4996 9.91275 34.5164 8.98738 34.7629C8.5233 34.8865 8.02351 34.7968 7.64258 34.5215C4.62339 32.322 2.57273 29.7173 1.4195 26.8981C0.295137 24.0807 -0.0742755 20.8192 0.0120109 17.2571C0.198925 9.79748 3.16463 4.59815 9.70661 0.261121ZM13.0887 31.3084C14.9779 29.6963 16.1163 27.937 16.9208 25.9143C17.9329 23.4407 18.2248 20.7087 18.137 17.3223C17.9913 11.5056 16.5248 7.72022 12.0817 4.20561V14.486C13.8189 14.9009 14.5991 16.4824 14.5991 18.2243C14.5991 19.9662 13.8189 21.5477 12.0817 21.9626V30.3738C12.0817 30.3738 12.889 31.0646 13.0887 31.3084ZM8.05389 31.3084C6.16458 29.6963 5.05272 27.937 4.24823 25.9143C3.23621 23.4407 2.94422 20.7087 3.03203 17.3223C3.17748 11.5172 4.6364 7.71554 9.06084 4.20561V14.486C7.32363 14.9009 6.54348 16.4824 6.54348 18.2243C6.54348 19.9662 7.32363 21.5477 9.06084 21.9626V30.3738C9.06084 30.3738 8.2461 31.0736 8.05389 31.3084ZM10.5713 16.3551C9.45901 16.3551 8.55737 17.192 8.55737 18.2243C8.55737 19.2566 9.45901 20.0935 10.5713 20.0935C11.6835 20.0935 12.5852 19.2566 12.5852 18.2243C12.5852 17.192 11.6835 16.3551 10.5713 16.3551Z" fill="#1188EE"/>
<path fill-rule="evenodd" clip-rule="evenodd" d="M35.8872 0.261121C36.4123 -0.0870405 37.1178 -0.0870404 37.643 0.261121C44.1849 4.59815 47.1507 9.79748 47.3376 17.2571C47.4239 20.8192 47.0544 24.0807 45.9301 26.8981C44.7769 29.7173 42.7262 32.322 39.707 34.5215C39.3261 34.7968 38.8263 34.8865 38.3622 34.7629C37.4375 34.5165 37.2801 33.4993 36.765 32.8651C36.2497 33.4996 36.0933 34.5164 35.1679 34.7629C34.7039 34.8865 34.2041 34.7968 33.8231 34.5215C30.8039 32.322 28.7533 29.7173 27.6 26.8981C26.4757 24.0807 26.1063 20.8192 26.1926 17.2571C26.3795 9.79748 29.3452 4.59815 35.8872 0.261121ZM39.2692 31.3084C41.1584 29.6963 42.2969 27.937 43.1013 25.9143C44.1134 23.4407 44.4053 20.7087 44.3175 17.3223C44.1718 11.5056 42.7053 7.72022 38.2623 4.20561V14.486C39.9995 14.9009 40.7796 16.4824 40.7796 18.2243C40.7796 19.9662 39.9995 21.5477 38.2623 21.9626V30.3738C38.2623 30.3738 39.0695 31.0646 39.2692 31.3084ZM34.2344 31.3084C32.3451 29.6963 31.2333 27.937 30.4288 25.9143C29.4168 23.4407 29.1248 20.7087 29.2126 17.3223C29.358 11.5172 30.8169 7.71554 35.2414 4.20561V14.486C33.5042 14.9009 32.724 16.4824 32.724 18.2243C32.724 19.9662 33.5042 21.5477 35.2414 21.9626V30.3738C35.2414 30.3738 34.4267 31.0736 34.2344 31.3084ZM36.7519 16.3551C35.6396 16.3551 34.7379 17.192 34.7379 18.2243C34.7379 19.2566 35.6396 20.0935 36.7519 20.0935C37.864 20.0935 38.7657 19.2566 38.7657 18.2243C38.7657 17.192 37.864 16.3551 36.7519 16.3551Z" fill="#1188EE"/>
</svg>
