<svg width="22" height="35" viewBox="0 0 22 35" fill="none" xmlns="http://www.w3.org/2000/svg">
<path fill-rule="evenodd" clip-rule="evenodd" d="M9.70661 0.261121C10.2318 -0.0870405 10.9372 -0.0870404 11.4625 0.261121C18.0044 4.59815 20.9701 9.79748 21.157 17.2571C21.2433 20.8192 20.8739 24.0807 19.7495 26.8981C18.5964 29.7173 16.5456 32.322 13.5265 34.5215C13.1456 34.7968 12.6457 34.8865 12.1816 34.7629C11.2569 34.5165 11.0996 33.4993 10.5845 32.8651C10.0692 33.4996 9.91275 34.5164 8.98738 34.7629C8.5233 34.8865 8.02351 34.7968 7.64258 34.5215C4.62339 32.322 2.57273 29.7173 1.4195 26.8981C0.295137 24.0807 -0.0742755 20.8192 0.0120109 17.2571C0.198925 9.79748 3.16463 4.59815 9.70661 0.261121ZM13.0887 31.3084C14.9779 29.6963 16.1163 27.937 16.9208 25.9143C17.9329 23.4407 18.2248 20.7087 18.137 17.3223C17.9913 11.5056 16.5248 7.72022 12.0817 4.20561V14.486C13.8189 14.9009 14.5991 16.4824 14.5991 18.2243C14.5991 19.9662 13.8189 21.5477 12.0817 21.9626V30.3738C12.0817 30.3738 12.889 31.0646 13.0887 31.3084ZM8.05389 31.3084C6.16458 29.6963 5.05272 27.937 4.24823 25.9143C3.23621 23.4407 2.94422 20.7087 3.03203 17.3223C3.17748 11.5172 4.6364 7.71554 9.06084 4.20561V14.486C7.32363 14.9009 6.54348 16.4824 6.54348 18.2243C6.54348 19.9662 7.32363 21.5477 9.06084 21.9626V30.3738C9.06084 30.3738 8.2461 31.0736 8.05389 31.3084ZM10.5713 16.3551C9.45901 16.3551 8.55737 17.192 8.55737 18.2243C8.55737 19.2566 9.45901 20.0935 10.5713 20.0935C11.6835 20.0935 12.5852 19.2566 12.5852 18.2243C12.5852 17.192 11.6835 16.3551 10.5713 16.3551Z" fill="white"/>
</svg>
