<svg width="152" height="36" viewBox="0 0 152 36" fill="none" xmlns="http://www.w3.org/2000/svg">
<path d="M41.2744 31.7234C38.7544 31.7234 36.8224 31.3196 35.4784 30.5122C34.1584 29.6823 33.4984 28.471 33.4984 26.8785C33.4984 26.071 33.7864 25.4094 34.3624 24.8935C34.9624 24.3551 35.7304 24.086 36.6664 24.086C37.2184 24.1084 37.6384 24.243 37.9264 24.4897C38.2144 24.714 38.3584 24.9271 38.3584 25.129C38.3584 25.1514 38.2384 25.2299 37.9984 25.3645C37.7584 25.4991 37.5424 25.7009 37.3504 25.9701C37.1584 26.2393 37.0624 26.6094 37.0624 27.0804C37.0624 28.1346 37.3984 28.9533 38.0704 29.5365C38.7664 30.0972 39.8344 30.3776 41.2744 30.3776C42.2584 30.3776 43.1224 30.1981 43.8664 29.8393C44.6104 29.4804 45.1744 29.0094 45.5584 28.4262C45.9664 27.8206 46.1704 27.1925 46.1704 26.5421C46.1704 25.7346 45.9184 25.0393 45.4144 24.4561C44.9344 23.8729 44.3344 23.3907 43.6144 23.0094C42.8944 22.6056 41.9104 22.1458 40.6624 21.6299C39.2224 21.0243 38.0584 20.4748 37.1704 19.9813C36.2824 19.4879 35.5264 18.8374 34.9024 18.0299C34.2784 17.2 33.9664 16.1794 33.9664 14.9682C33.9664 13.0168 34.6744 11.5589 36.0904 10.5944C37.5304 9.62992 39.4144 9.14767 41.7424 9.14767C43.5664 9.14767 45.1504 9.50655 46.4944 10.2243C47.8624 10.9421 48.5464 11.9963 48.5464 13.3869C48.5464 14.1944 48.2464 14.8673 47.6464 15.4056C47.0704 15.9215 46.3144 16.1795 45.3784 16.1795C44.8264 16.157 44.4064 16.0337 44.1184 15.8094C43.8304 15.5626 43.6864 15.3383 43.6864 15.1365C43.6864 15.114 43.8424 15.0355 44.1544 14.9009C44.4904 14.7664 44.7784 14.5645 45.0184 14.2953C45.2824 14.0262 45.4144 13.6561 45.4144 13.1851C45.4144 12.3552 45.0664 11.7047 44.3704 11.2337C43.6984 10.7626 42.8344 10.5271 41.7784 10.5271C40.3144 10.5271 39.1984 10.8523 38.4304 11.5028C37.6864 12.1309 37.3144 12.9159 37.3144 13.858C37.3144 14.643 37.5424 15.3047 37.9984 15.843C38.4544 16.3589 39.1864 16.8748 40.1944 17.3907C41.0104 17.7944 41.8984 18.1981 42.8584 18.6019C44.3944 19.2523 45.6064 19.8467 46.4944 20.3851C47.4064 20.9234 48.1624 21.6299 48.7624 22.5047C49.3864 23.3794 49.6984 24.4673 49.6984 25.7682C49.6984 26.8897 49.3144 27.9103 48.5464 28.8299C47.8024 29.7271 46.7824 30.4337 45.4864 30.9495C44.2144 31.4654 42.8104 31.7234 41.2744 31.7234Z" fill="white"/>
<path d="M59.4994 31.4542C57.8674 31.4542 56.5714 30.9944 55.6114 30.0748C54.6514 29.1552 54.1714 27.9439 54.1714 26.4411V20.2168C54.1714 19.6337 54.1474 19.2075 54.0994 18.9383C54.0754 18.6692 53.9314 18.4337 53.6674 18.2318C53.4034 18.0299 52.9594 17.929 52.3354 17.929C52.0474 17.929 51.8314 17.8953 51.6874 17.8281C51.5434 17.7383 51.4714 17.5477 51.4714 17.2561C51.4714 17.1215 51.5194 16.9981 51.6154 16.886C51.7114 16.7514 51.8554 16.6729 52.0474 16.6505C53.5594 16.4486 54.8554 16.157 55.9354 15.7757C56.2714 15.6636 56.5474 15.5963 56.7634 15.5738H56.8714C57.2554 15.5738 57.4474 15.7869 57.4474 16.2131V26.4075C57.4474 27.4393 57.7954 28.2355 58.4914 28.7963C59.1874 29.3346 59.9914 29.6038 60.9034 29.6038C62.0314 29.6038 62.9914 29.3458 63.7834 28.8299C64.5754 28.314 65.1034 27.7981 65.3674 27.2823V20.2168C65.3674 19.6337 65.3434 19.2075 65.2954 18.9383C65.2714 18.6692 65.1274 18.4337 64.8634 18.2318C64.5994 18.0299 64.1554 17.929 63.5314 17.929C63.2434 17.929 63.0274 17.8953 62.8834 17.8281C62.7394 17.7383 62.6674 17.5477 62.6674 17.2561C62.6674 17.1215 62.7154 16.9981 62.8114 16.886C62.9074 16.7514 63.0514 16.6729 63.2434 16.6505C64.7554 16.4486 66.0514 16.157 67.1314 15.7757C67.4674 15.6636 67.7434 15.5963 67.9594 15.5738H68.0674C68.4514 15.5738 68.6434 15.7869 68.6434 16.2131V27.8542C68.6434 29.1776 69.5914 29.8393 71.4874 29.8393C71.8954 29.8393 72.0994 30.0524 72.0994 30.4785C72.0994 30.7925 71.8954 30.9832 71.4874 31.0505L65.6914 31.4206C65.5234 31.4206 65.4274 31.3645 65.4034 31.2524C65.3794 31.1626 65.3674 30.9944 65.3674 30.7477V28.8636H65.2954C64.5994 29.4692 64.0354 29.9402 63.6034 30.2767C63.1714 30.5907 62.6074 30.8598 61.9114 31.0841C61.2394 31.3309 60.4354 31.4542 59.4994 31.4542Z" fill="white"/>
<path d="M74.0687 31.1514C73.9007 31.1514 73.7567 31.0841 73.6367 30.9495C73.5407 30.815 73.4927 30.658 73.4927 30.4785C73.5167 30.1869 73.5887 30.0187 73.7087 29.9738C73.8287 29.9066 74.0447 29.8729 74.3567 29.8729C74.9807 29.8729 75.4247 29.772 75.6887 29.5701C75.9527 29.3682 76.0967 29.1327 76.1207 28.8636C76.1687 28.5944 76.1927 28.1682 76.1927 27.5851V19.8804C76.1927 19.2972 76.1687 18.871 76.1207 18.6019C76.0967 18.3327 75.9527 18.0972 75.6887 17.8953C75.4247 17.6935 74.9807 17.5925 74.3567 17.5925C74.0687 17.5925 73.8527 17.5589 73.7087 17.4916C73.5647 17.4019 73.4927 17.2112 73.4927 16.9196C73.4927 16.7851 73.5407 16.6617 73.6367 16.5495C73.7327 16.415 73.8767 16.3365 74.0687 16.314C75.6287 16.0897 76.9127 15.7981 77.9207 15.4393C78.3287 15.3271 78.6047 15.2598 78.7487 15.2374H78.8567C79.2407 15.2374 79.4327 15.4505 79.4327 15.8767V17.9626H79.5407C80.3807 17.1776 81.2327 16.5608 82.0967 16.1122C82.9607 15.6411 83.7407 15.4056 84.4367 15.4056C85.2287 15.4056 85.8527 15.686 86.3087 16.2467C86.7887 16.7851 87.0287 17.4131 87.0287 18.1309C87.0287 18.7589 86.8247 19.3196 86.4167 19.8131C86.0087 20.3066 85.4447 20.5533 84.7247 20.5533C84.3887 20.5533 84.0887 20.486 83.8247 20.3514C83.5847 20.2168 83.4527 20.1047 83.4287 20.015C83.4527 19.9701 83.5727 19.8355 83.7887 19.6112C84.0047 19.3645 84.1127 19.0841 84.1127 18.7701C84.1127 18.3664 83.9927 18.0411 83.7527 17.7944C83.5367 17.5477 83.2367 17.4243 82.8527 17.4243C82.4447 17.4243 81.9287 17.615 81.3047 17.9963C80.6807 18.3552 80.0687 18.815 79.4687 19.3757V27.5851C79.4687 28.1682 79.4927 28.5944 79.5407 28.8636C79.5887 29.1327 79.7447 29.3682 80.0087 29.5701C80.2727 29.772 80.7167 29.8729 81.3407 29.8729H81.5567C81.7487 29.8729 81.8927 29.9066 81.9887 29.9738C82.0847 30.0411 82.1447 30.2094 82.1687 30.4785C82.1687 30.658 82.1207 30.815 82.0247 30.9495C81.9287 31.0841 81.7847 31.1514 81.5927 31.1514C80.2007 31.0841 78.9407 31.0505 77.8127 31.0505C76.7327 31.0505 75.4847 31.0841 74.0687 31.1514Z" fill="white"/>
<path d="M129.981 31.4542C128.349 31.4542 126.897 31.0953 125.625 30.3776C124.353 29.6374 123.357 28.6729 122.637 27.4841C121.941 26.2729 121.593 24.9944 121.593 23.6486C121.593 21.9664 122.013 20.5084 122.853 19.2748C123.693 18.0187 124.761 17.0654 126.057 16.415C127.353 15.7421 128.661 15.4056 129.981 15.4056C131.613 15.4056 133.065 15.7757 134.337 16.5159C135.609 17.2337 136.593 18.1981 137.289 19.4094C138.009 20.5981 138.369 21.8654 138.369 23.2112C138.369 24.8935 137.937 26.3626 137.073 27.6187C136.233 28.8523 135.165 29.8056 133.869 30.4785C132.573 31.129 131.277 31.4542 129.981 31.4542ZM129.981 30.2094C131.613 30.2094 132.801 29.5589 133.545 28.258C134.313 26.957 134.697 25.2748 134.697 23.2112C134.697 21.2823 134.301 19.7122 133.509 18.5009C132.741 17.2673 131.565 16.6505 129.981 16.6505C128.325 16.6505 127.125 17.2897 126.381 18.5682C125.637 19.8467 125.265 21.5178 125.265 23.5813C125.265 25.5103 125.649 27.1028 126.417 28.3589C127.185 29.5925 128.373 30.2094 129.981 30.2094Z" fill="white"/>
<path d="M147.44 31.6224C146.264 31.6224 145.256 31.2187 144.416 30.4112C143.576 29.6038 143.156 28.4486 143.156 26.9458V17.0542L141.068 17.1215C140.924 17.1215 140.804 17.0654 140.708 16.9533C140.612 16.8187 140.564 16.6729 140.564 16.5159C140.564 16.314 140.6 16.1458 140.672 16.0112C140.768 15.8542 140.9 15.7645 141.068 15.7421C141.908 15.5851 142.556 15.3383 143.012 15.0019C143.492 14.643 143.84 14.2617 144.056 13.858C144.272 13.4318 144.536 12.7925 144.848 11.9402C144.968 11.6486 145.232 11.5028 145.64 11.5028C145.808 11.5028 145.976 11.5477 146.144 11.6374C146.312 11.7047 146.396 11.8168 146.396 11.9738L146.144 15.8094L150.356 15.5738H150.428C150.74 15.5738 150.896 15.7869 150.896 16.2131C150.896 16.4598 150.848 16.6953 150.752 16.9196C150.68 17.1215 150.584 17.2224 150.464 17.2224L146.432 17.1215V27.3495C146.432 28.0897 146.588 28.7066 146.9 29.2C147.236 29.6935 147.776 29.9402 148.52 29.9402C149.264 29.9402 149.924 29.8168 150.5 29.5701C150.812 29.458 151.004 29.4019 151.076 29.4019C151.244 29.4019 151.376 29.4692 151.472 29.6038C151.568 29.7159 151.664 29.8729 151.76 30.0748C151.784 30.1196 151.796 30.1757 151.796 30.243C151.796 30.3327 151.724 30.4337 151.58 30.5458C150.884 30.972 150.224 31.2524 149.6 31.3869C149 31.5439 148.28 31.6224 147.44 31.6224Z" fill="white"/>
<path d="M89.2536 30.9495C89.3496 31.0841 89.4936 31.1514 89.6856 31.1514C91.0536 31.0841 92.3016 31.0505 93.4296 31.0505C95.0376 31.0505 96.5376 31.0841 97.9296 31.1514C98.0976 31.1514 98.2296 31.0841 98.3256 30.9495C98.4216 30.815 98.4696 30.658 98.4696 30.4785C98.4456 30.2094 98.3856 30.0411 98.2896 29.9738C98.2176 29.9066 98.0736 29.8729 97.8576 29.8729H97.6416C96.8496 29.8729 96.2856 29.8168 95.9496 29.7047C95.6136 29.5925 95.3856 29.3907 95.2656 29.0991C95.1456 28.7851 95.0856 28.2804 95.0856 27.5851V17.1215H98.9016C99.0696 17.1215 99.2136 17.0542 99.3336 16.9196C99.4536 16.7851 99.5136 16.628 99.5136 16.4486C99.4896 16.1794 99.4176 16.0112 99.2976 15.9439C99.2016 15.8542 99.0456 15.8094 98.8296 15.8094H95.0856V13.7907C95.0856 12.714 95.1336 11.772 95.2296 10.9645C95.3256 10.1346 95.6016 9.37197 96.0576 8.67665C96.5136 7.98132 97.2216 7.63366 98.1816 7.63366C98.292 7.63366 98.3988 7.63973 98.5019 7.65188C98.4881 7.27227 98.5155 6.8904 98.581 6.52503C98.5321 6.52393 98.483 6.52337 98.4336 6.52337C96.3216 6.56823 94.6776 7.31964 93.5016 8.77758C92.3496 10.2131 91.7736 12.086 91.7736 14.3963V15.8094H89.6136C89.3016 15.8094 89.0856 15.843 88.9656 15.9103C88.8456 15.9552 88.7736 16.1346 88.7496 16.4486C88.7496 16.628 88.7976 16.7851 88.8936 16.9196C89.0136 17.0542 89.1696 17.1215 89.3616 17.1215H91.7736V27.5851C91.7736 28.1907 91.7496 28.628 91.7016 28.8972C91.6776 29.1439 91.5336 29.3682 91.2696 29.5701C91.0056 29.772 90.5616 29.8729 89.9376 29.8729C89.6256 29.8729 89.4096 29.9066 89.2896 29.9738C89.1936 30.0187 89.1336 30.1869 89.1096 30.4785C89.1096 30.658 89.1576 30.815 89.2536 30.9495Z" fill="white"/>
<path fill-rule="evenodd" clip-rule="evenodd" d="M108.498 7.45795C108.498 9.52257 106.707 11.1963 104.498 11.1963C102.289 11.1963 100.498 9.52257 100.498 7.45795C100.498 5.39334 102.289 3.71964 104.498 3.71964C106.707 3.71964 108.498 5.39334 108.498 7.45795ZM104.498 9.32711C105.603 9.32711 106.498 8.49026 106.498 7.45795C106.498 6.42565 105.603 5.5888 104.498 5.5888C103.394 5.5888 102.498 6.42565 102.498 7.45795C102.498 8.49026 103.394 9.32711 104.498 9.32711Z" fill="white"/>
<path fill-rule="evenodd" clip-rule="evenodd" d="M102.745 12.8223V30.8486C102.745 31.0505 102.805 31.2075 102.925 31.3196C103.045 31.4542 103.213 31.5215 103.429 31.5215C103.645 31.5215 103.825 31.4318 103.969 31.2523C104.113 31.0953 104.245 30.8598 104.365 30.5458C104.485 30.2318 104.593 29.9851 104.689 29.8056H104.869C106.429 30.9047 108.277 31.4542 110.413 31.4542C111.853 31.4542 113.209 31.0953 114.481 30.3776C115.753 29.6598 116.761 28.6841 117.505 27.4505C118.273 26.1944 118.657 24.815 118.657 23.3122C118.657 21.7869 118.321 20.4299 117.649 19.2411C117.001 18.0299 116.101 17.0879 114.949 16.415C113.797 15.7421 112.513 15.4056 111.097 15.4056C110.233 15.4056 109.357 15.5738 108.469 15.9103C107.605 16.2243 106.825 16.7066 106.129 17.357H106.021V12.8832C104.951 13.1451 103.804 13.1241 102.745 12.8223ZM113.617 28.4598C112.729 29.6935 111.553 30.3103 110.089 30.3103C109.321 30.3103 108.637 30.1533 108.037 29.8393C107.461 29.5252 106.993 29.1551 106.633 28.729C106.297 28.2804 106.093 27.8766 106.021 27.5178V18.6355C107.053 17.6037 108.325 17.0879 109.837 17.0879C111.541 17.0879 112.825 17.7159 113.689 18.972C114.553 20.2056 114.985 21.6972 114.985 23.4467C114.985 25.5327 114.529 27.2037 113.617 28.4598Z" fill="white"/>
<path fill-rule="evenodd" clip-rule="evenodd" d="M9.63967 0.70973C10.1612 0.361568 10.8618 0.361568 11.3834 0.70973C17.8802 5.04676 20.8255 10.2461 21.0111 17.7057C21.0968 21.2678 20.7299 24.5293 19.6133 27.3467C18.4681 30.1659 16.4315 32.7706 13.4332 34.9701C13.0549 35.2454 12.5585 35.3352 12.0976 35.2115C11.1793 34.9651 11.023 33.9479 10.5115 33.3137C9.99974 33.9482 9.84439 34.965 8.9254 35.2115C8.46452 35.3352 7.96817 35.2454 7.58987 34.9701C4.5915 32.7706 2.55499 30.1659 1.40971 27.3467C0.293102 24.5293 -0.0737632 21.2678 0.0119281 17.7057C0.197553 10.2461 3.1428 5.04676 9.63967 0.70973ZM12.9984 31.757C14.8746 30.1449 16.0052 28.3856 16.8041 26.3629C17.8092 23.8893 18.0991 21.1573 18.0119 17.7709C17.8672 11.9542 16.4108 8.16883 11.9984 4.65422V14.9346C13.7236 15.3495 14.4984 16.931 14.4984 18.6729C14.4984 20.4148 13.7236 21.9963 11.9984 22.4112V30.8224C11.9984 30.8224 12.8001 31.5132 12.9984 31.757ZM7.99835 31.757C6.12206 30.1449 5.01787 28.3856 4.21893 26.3629C3.21389 23.8893 2.92391 21.1573 3.01112 17.7709C3.15557 11.9658 4.60442 8.16415 8.99835 4.65422V14.9346C7.27312 15.3495 6.49835 16.931 6.49835 18.6729C6.49835 20.4148 7.27312 21.9963 8.99835 22.4112V30.8224C8.99835 30.8224 8.18923 31.5222 7.99835 31.757ZM10.4984 16.8037C9.39378 16.8037 8.49835 17.6406 8.49835 18.6729C8.49835 19.7052 9.39378 20.5421 10.4984 20.5421C11.6029 20.5421 12.4984 19.7052 12.4984 18.6729C12.4984 17.6406 11.6029 16.8037 10.4984 16.8037Z" fill="white"/>
</svg>
