<svg width="22" height="35" viewBox="0 0 22 35" fill="none" xmlns="http://www.w3.org/2000/svg">
<path fill-rule="evenodd" clip-rule="evenodd" d="M9.72053 0.261121C10.2457 -0.0870405 10.9511 -0.0870404 11.4764 0.261121C18.0183 4.59815 20.984 9.79748 21.1709 17.2571C21.2572 20.8192 20.8878 24.0807 19.7634 26.8981C18.6103 29.7173 16.5595 32.322 13.5404 34.5215C13.1595 34.7968 12.6596 34.8865 12.1955 34.7629C11.2709 34.5165 11.1135 33.4993 10.5984 32.8651C10.0831 33.4996 9.92667 34.5164 9.0013 34.7629C8.53722 34.8865 8.03742 34.7968 7.65649 34.5215C4.6373 32.322 2.58665 29.7173 1.43342 26.8981C0.309054 24.0807 -0.0603595 20.8192 0.0259269 17.2571C0.212841 9.79748 3.17854 4.59815 9.72053 0.261121ZM13.1026 31.3084C14.9918 29.6963 16.1303 27.937 16.9347 25.9143C17.9468 23.4407 18.2387 20.7087 18.1509 17.3223C18.0052 11.5056 16.5387 7.72022 12.0956 4.20561V14.486C13.8328 14.9009 14.613 16.4824 14.613 18.2243C14.613 19.9662 13.8328 21.5477 12.0956 21.9626V30.3738C12.0956 30.3738 12.9029 31.0646 13.1026 31.3084ZM8.06781 31.3084C6.17849 29.6963 5.06663 27.937 4.26214 25.9143C3.25012 23.4407 2.95813 20.7087 3.04595 17.3223C3.1914 11.5172 4.65031 7.71554 9.07476 4.20561V14.486C7.33754 14.9009 6.55739 16.4824 6.55739 18.2243C6.55739 19.9662 7.33754 21.5477 9.07476 21.9626V30.3738C9.07476 30.3738 8.26002 31.0736 8.06781 31.3084ZM10.5852 16.3551C9.47293 16.3551 8.57128 17.192 8.57128 18.2243C8.57128 19.2566 9.47293 20.0935 10.5852 20.0935C11.6974 20.0935 12.5991 19.2566 12.5991 18.2243C12.5991 17.192 11.6974 16.3551 10.5852 16.3551Z" fill="#1188EE"/>
</svg>
